<svg width="15" height="16" viewBox="0 0 15 16" fill="none" xmlns="http://www.w3.org/2000/svg">
<path d="M12.6562 6.00002C12.6577 5.10186 12.453 4.21696 12.06 3.42266C11.6669 2.62836 11.0975 1.94883 10.4014 1.44344C9.70528 0.93805 8.90377 0.622186 8.06684 0.523449C7.22991 0.424712 6.38304 0.546104 5.60025 0.877021C4.81745 1.20794 4.12254 1.73831 3.57624 2.42179C3.02995 3.10526 2.64889 3.92105 2.46635 4.79786C2.28382 5.67467 2.30539 6.58582 2.52915 7.45169C2.75291 8.31756 3.17207 9.11181 3.74999 9.76502V15C3.75005 15.0825 3.76926 15.1637 3.80591 15.2364C3.84256 15.3091 3.89551 15.371 3.96003 15.4165C4.02455 15.4621 4.09863 15.4899 4.17567 15.4975C4.25271 15.5051 4.33031 15.4922 4.40155 15.46L7.49999 14.045L10.5984 15.46C10.6563 15.4863 10.7184 15.4999 10.7812 15.5C10.8731 15.4992 10.9627 15.4697 11.0391 15.415C11.1036 15.3697 11.1565 15.3081 11.1934 15.2357C11.2301 15.1633 11.2496 15.0823 11.25 15V9.76502C12.1509 8.74671 12.6539 7.4002 12.6562 6.00002ZM7.49999 1.50002C8.33438 1.50002 9.15004 1.76394 9.84384 2.25841C10.5376 2.75287 11.0783 3.45568 11.3976 4.27795C11.7169 5.10021 11.8005 6.00501 11.6377 6.87793C11.4749 7.75084 11.0731 8.55266 10.4831 9.182C9.89306 9.81134 9.14138 10.2399 8.32303 10.4135C7.50467 10.5872 6.65642 10.498 5.88555 10.1574C5.11467 9.81688 4.45579 9.24011 3.99223 8.50009C3.52866 7.76007 3.28124 6.89004 3.28124 6.00002C3.28124 4.80655 3.72572 3.66195 4.51688 2.81804C5.30805 1.97413 6.38111 1.50002 7.49999 1.50002ZM7.6828 13.04C7.62497 13.0139 7.5628 13.0004 7.49999 13.0004C7.43719 13.0004 7.37501 13.0139 7.31718 13.04L4.68749 14.24V10.605C5.52441 11.186 6.50146 11.4952 7.49999 11.4952C8.49852 11.4952 9.47559 11.186 10.3125 10.605V14.24L7.6828 13.04Z" fill="#DA251D"/>
<path d="M4.68757 6.41499L5.30632 6.91499C5.33627 6.94179 5.35807 6.97751 5.36893 7.01758C5.37977 7.05766 5.3792 7.10027 5.36726 7.13999L5.13288 7.94499C5.05858 8.18778 5.05948 8.44964 5.13545 8.69185C5.21142 8.93406 5.35844 9.14377 5.55476 9.28999C5.73446 9.42974 5.95111 9.50502 6.17351 9.50499C6.40721 9.50283 6.63404 9.42043 6.82038 9.26999L7.43913 8.76999C7.46348 8.75051 7.49308 8.73999 7.52351 8.73999C7.55394 8.73999 7.58355 8.75051 7.60788 8.76999L8.22663 9.26999C8.40919 9.41604 8.63124 9.49499 8.85945 9.49499C9.08765 9.49499 9.3097 9.41604 9.49225 9.26999C9.68856 9.12377 9.83556 8.91406 9.91159 8.67185C9.98753 8.42964 9.98847 8.16778 9.91412 7.92499L9.67975 7.11999C9.66784 7.08027 9.66728 7.03766 9.67806 6.99758C9.68894 6.95751 9.71078 6.92179 9.74069 6.89499L10.3594 6.39499C10.5507 6.24363 10.6913 6.03072 10.7605 5.78765C10.8297 5.54459 10.8239 5.28423 10.7438 5.04499C10.6742 4.81147 10.5368 4.60763 10.3514 4.46292C10.166 4.31821 9.94225 4.24013 9.71256 4.23999H8.90632C8.87224 4.23837 8.83948 4.22547 8.81259 4.20306C8.7857 4.18066 8.76603 4.14987 8.75632 4.11499L8.52195 3.30999C8.457 3.06911 8.32035 2.8573 8.13263 2.70654C7.94491 2.55578 7.71631 2.47424 7.48132 2.47424C7.24635 2.47424 7.01774 2.55578 6.83002 2.70654C6.6423 2.8573 6.50565 3.06911 6.4407 3.30999L6.20632 4.11499C6.19661 4.14987 6.17694 4.18066 6.15005 4.20306C6.12316 4.22547 6.09041 4.23837 6.05632 4.23999H5.31101C5.08129 4.24013 4.85757 4.31821 4.67219 4.46292C4.48681 4.60763 4.34937 4.81147 4.27976 5.04499C4.19761 5.28946 4.19301 5.55595 4.26669 5.80347C4.34038 6.051 4.48825 6.26585 4.68757 6.41499ZM5.15632 5.38499C5.16277 5.35011 5.18026 5.31866 5.20586 5.2959C5.23146 5.27314 5.26363 5.26046 5.29695 5.25999H6.09382C6.32732 5.25986 6.55459 5.17957 6.742 5.031C6.92941 4.88242 7.06701 4.67345 7.13445 4.43499L7.37351 3.62499C7.38177 3.59057 7.40054 3.56006 7.42684 3.53828C7.45316 3.5165 7.48551 3.50467 7.51882 3.50467C7.55213 3.50467 7.58448 3.5165 7.6108 3.53828C7.63711 3.56006 7.65587 3.59057 7.66413 3.62499L7.9032 4.43499C7.96866 4.66703 8.10061 4.87138 8.28053 5.01935C8.46045 5.16731 8.67928 5.25147 8.90632 5.25999H9.67037C9.70375 5.26046 9.73591 5.27314 9.7615 5.2959C9.78709 5.31866 9.80453 5.35011 9.811 5.38499C9.82675 5.42458 9.82975 5.46859 9.81953 5.51018C9.80941 5.55178 9.78662 5.58862 9.75475 5.61499L9.13601 6.11499C8.95106 6.26509 8.81401 6.47238 8.74354 6.7086C8.67308 6.94483 8.67263 7.19848 8.74226 7.43499L8.98132 8.23999C8.99559 8.28117 8.99641 8.32628 8.98365 8.36802C8.97089 8.40976 8.94529 8.44569 8.91101 8.46999C8.88811 8.49077 8.85903 8.50218 8.82898 8.50218C8.79892 8.50218 8.76984 8.49077 8.74695 8.46999L8.1282 7.96999C7.94317 7.81673 7.71558 7.73354 7.48132 7.73354C7.24706 7.73354 7.01947 7.81673 6.83445 7.96999L6.2157 8.46999C6.1928 8.49077 6.16373 8.50218 6.13366 8.50218C6.10361 8.50218 6.07453 8.49077 6.05163 8.46999C6.01735 8.44569 5.99176 8.40976 5.979 8.36802C5.96624 8.32628 5.96705 8.28117 5.98132 8.23999L6.22038 7.43499C6.29001 7.19848 6.28956 6.94483 6.2191 6.7086C6.14864 6.47238 6.01158 6.26509 5.82663 6.11499L5.20788 5.61499C5.17685 5.58797 5.155 5.55083 5.14569 5.50927C5.13637 5.46772 5.14011 5.42405 5.15632 5.38499Z" fill="#DA251D"/>
</svg>
