<svg width="16" height="16" viewBox="0 0 16 16" fill="none" xmlns="http://www.w3.org/2000/svg">
<path d="M10.25 8.00005C9.54291 7.6806 8.7759 7.51538 8 7.51538C7.2241 7.51538 6.45709 7.6806 5.75 8.00005C4.78486 8.43273 3.96496 9.13453 3.38853 10.0214C2.8121 10.9082 2.5036 11.9424 2.5 13.0001V14.0001C2.5 14.3979 2.65804 14.7794 2.93934 15.0607C3.22064 15.3421 3.60218 15.5001 4 15.5001H12C12.3978 15.5001 12.7794 15.3421 13.0607 15.0607C13.342 14.7794 13.5 14.3979 13.5 14.0001V13.0001C13.4964 11.9424 13.1879 10.9082 12.6115 10.0214C12.035 9.13453 11.2151 8.43273 10.25 8.00005ZM9.14 8.65005L8 9.79505L6.86 8.65005C7.60683 8.44995 8.39317 8.44995 9.14 8.65005ZM8 14.2201L7.33 13.4151L8 11.8001L8.67 13.4151L8 14.2201ZM3.5 14.0001V13.0001C3.50008 12.1918 3.71788 11.3984 4.13052 10.7033C4.54316 10.0083 5.1354 9.43714 5.845 9.05005L7.41 10.6151L6.29 13.3101C6.25694 13.3926 6.24646 13.4824 6.25964 13.5703C6.27283 13.6581 6.30919 13.7409 6.365 13.8101L6.935 14.5001H4C3.86739 14.5001 3.74021 14.4474 3.64645 14.3536C3.55268 14.2599 3.5 14.1327 3.5 14.0001ZM12.5 14.0001C12.5 14.1327 12.4473 14.2599 12.3536 14.3536C12.2598 14.4474 12.1326 14.5001 12 14.5001H9.065L9.635 13.8201C9.69081 13.7509 9.72717 13.6681 9.74036 13.5803C9.75354 13.4924 9.74306 13.4026 9.71 13.3201L8.59 10.6251L10.155 9.06005C10.8631 9.44633 11.4544 10.0159 11.8669 10.709C12.2795 11.4022 12.4981 12.1935 12.5 13.0001V14.0001Z" fill="#DA251D"/>
<path d="M8 6.5C8.59334 6.5 9.17336 6.32405 9.66671 5.99441C10.1601 5.66477 10.5446 5.19623 10.7716 4.64805C10.9987 4.09987 11.0581 3.49667 10.9424 2.91473C10.8266 2.33279 10.5409 1.79824 10.1213 1.37868C9.70176 0.959123 9.16721 0.673401 8.58527 0.557646C8.00333 0.44189 7.40013 0.5013 6.85195 0.728363C6.30377 0.955426 5.83524 1.33994 5.50559 1.83329C5.17595 2.32664 5 2.90666 5 3.5C5 4.29565 5.31607 5.05871 5.87868 5.62132C6.44129 6.18393 7.20435 6.5 8 6.5ZM8 1.5C8.39556 1.5 8.78224 1.6173 9.11114 1.83706C9.44004 2.05682 9.69638 2.36918 9.84776 2.73463C9.99913 3.10009 10.0387 3.50222 9.96157 3.89018C9.8844 4.27814 9.69392 4.63451 9.41421 4.91422C9.13451 5.19392 8.77814 5.3844 8.39018 5.46157C8.00222 5.53874 7.60009 5.49914 7.23463 5.34776C6.86918 5.19639 6.55682 4.94004 6.33706 4.61114C6.1173 4.28224 6 3.89556 6 3.5C6 2.96957 6.21071 2.46086 6.58579 2.08579C6.96086 1.71071 7.46957 1.5 8 1.5Z" fill="#DA251D"/>
</svg>
