<svg width="16" height="16" viewBox="0 0 16 16" fill="none" xmlns="http://www.w3.org/2000/svg">
<path d="M15 12.5H11C11.5186 12.1051 11.9534 11.6107 12.2787 11.0458C12.6041 10.4809 12.8136 9.85679 12.895 9.20998H13.02C13.6435 9.20002 14.2407 8.95741 14.6945 8.52978C15.1483 8.10215 15.426 7.52037 15.4729 6.89859C15.5199 6.27681 15.3328 5.65992 14.9484 5.16898C14.5639 4.67804 14.0099 4.34849 13.395 4.24498L13.465 3.58998C13.4786 3.45095 13.463 3.31059 13.4191 3.17797C13.3752 3.04535 13.3039 2.9234 13.21 2.81998C13.1134 2.71568 12.9956 2.63318 12.8645 2.578C12.7335 2.52282 12.5921 2.49622 12.45 2.49998H3.55C3.41046 2.50031 3.27253 2.52985 3.14508 2.58668C3.01763 2.64351 2.90349 2.72639 2.81 2.82998C2.71607 2.9334 2.64484 3.05535 2.60092 3.18797C2.557 3.32059 2.54136 3.46095 2.555 3.59998L3.105 9.06998C3.16698 9.74155 3.36735 10.393 3.69349 10.9834C4.01963 11.5737 4.46447 12.0901 5 12.5H1C0.867392 12.5 0.740215 12.5527 0.646447 12.6465C0.552678 12.7402 0.5 12.8674 0.5 13C0.5 13.1326 0.552678 13.2598 0.646447 13.3536C0.740215 13.4473 0.867392 13.5 1 13.5H15C15.1326 13.5 15.2598 13.4473 15.3536 13.3536C15.4473 13.2598 15.5 13.1326 15.5 13C15.5 12.8674 15.4473 12.7402 15.3536 12.6465C15.2598 12.5527 15.1326 12.5 15 12.5ZM14.5 6.71998C14.5 7.11781 14.342 7.49934 14.0607 7.78064C13.7794 8.06195 13.3978 8.21999 13 8.21999L13.3 5.24998C13.6388 5.31914 13.9433 5.50324 14.162 5.77111C14.3807 6.03899 14.5001 6.37419 14.5 6.71998ZM8 5.53998L8.75 5.83998V7.49998H7.25V5.83998L8 5.53998ZM4.1 8.96999L3.55 3.49998H7.5V4.65998L6.565 5.03498C6.47197 5.07204 6.3922 5.13617 6.33604 5.21908C6.27988 5.30198 6.2499 5.39985 6.25 5.49998V7.99998C6.25 8.13259 6.30268 8.25977 6.39645 8.35354C6.49021 8.44731 6.61739 8.49998 6.75 8.49998H9.25C9.38261 8.49998 9.50979 8.44731 9.60355 8.35354C9.69732 8.25977 9.75 8.13259 9.75 7.99998V5.49998C9.7501 5.39985 9.72012 5.30198 9.66396 5.21908C9.6078 5.13617 9.52803 5.07204 9.435 5.03498L8.5 4.65998V3.49998H12.45L11.9 8.96999C11.802 9.93621 11.3489 10.8317 10.6283 11.4829C9.90778 12.134 8.97118 12.4945 8 12.4945C7.02882 12.4945 6.09222 12.134 5.37168 11.4829C4.65114 10.8317 4.19798 9.93621 4.1 8.96999Z" fill="#DA251D"/>
</svg>
