<svg width="52" height="52" viewBox="0 0 52 52" fill="none" xmlns="http://www.w3.org/2000/svg">
<g clip-path="url(#clip0_21_1468)">
<rect width="52" height="52" rx="26" fill="white"/>
<path d="M26.0002 -0.0551758C20.847 -0.0551758 15.8096 1.47291 11.5249 4.33586C7.24018 7.1988 3.90066 11.268 1.92863 16.0289C-0.0433983 20.7898 -0.559371 26.0286 0.445961 31.0827C1.45129 36.1369 3.93278 40.7794 7.57661 44.4232C11.2205 48.0671 15.863 50.5486 20.9171 51.5539C25.9713 52.5592 31.21 52.0432 35.9709 50.0712C40.7318 48.0992 44.801 44.7597 47.664 40.475C50.5269 36.1903 52.055 31.1528 52.055 25.9997C52.055 22.5781 51.3811 19.19 50.0717 16.0289C48.7623 12.8678 46.8432 9.99553 44.4237 7.57611C42.0043 5.1567 39.1321 3.23751 35.9709 1.92813C32.8098 0.618753 29.4217 -0.0551758 26.0002 -0.0551758ZM20.7892 37.7244V14.275L36.4221 25.9997L20.7892 37.7244Z" fill="#FF0033"/>
</g>
<defs>
<clipPath id="clip0_21_1468">
<rect width="52" height="52" rx="26" fill="white"/>
</clipPath>
</defs>
</svg>
