<svg width="1920" height="891" viewBox="0 0 1920 891" fill="none" xmlns="http://www.w3.org/2000/svg">
<path d="M0 0H1920V751.074L0 891V0Z" fill="#FFF5F5"/>
<mask id="mask0_4_13" style="mask-type:alpha" maskUnits="userSpaceOnUse" x="0" y="0" width="1920" height="891">
<path d="M0 0H1920V751.074L0 891V0Z" fill="#FFF5F5"/>
</mask>
<g mask="url(#mask0_4_13)">
<path d="M1912.08 -151.617L1531.02 2.12593C1438.78 39.3407 1394.17 144.285 1431.38 236.526L1573.9 589.755C1611.11 681.996 1716.05 726.603 1808.29 689.388L2189.36 535.646C2281.6 498.431 2326.21 393.487 2288.99 301.246L2146.48 -51.9836C2109.27 -144.224 2004.32 -188.831 1912.08 -151.617Z" fill="#FFECED"/>
<path d="M1912.76 -70.7987L1586.6 60.792C1519.28 87.9545 1486.72 164.552 1513.88 231.877L1636.52 535.851C1663.68 603.176 1740.28 635.734 1807.61 608.572L2133.77 476.981C2201.09 449.818 2233.65 373.221 2206.49 305.896L2083.85 1.92187C2056.68 -65.4031 1980.09 -97.9612 1912.76 -70.7987Z" fill="#FED7D9"/>
</g>
</svg>
